# xmcd CD database file
#
# Track frame offsets:
#	150
#	19870
#	39638
#	59278
#
# Disc length: 1051 seconds
#
# Revision: 0
# Processed by: cddbd v1.5.1PL0 Copyright (c) Steve Scherf et al.
# Submitted via: CDex 1.51
#
DISCID=2d041904
DTITLE=宇徳敬子 - どこまでもずっと
DYEAR=1994
DGENRE=JPop
TTITLE0=どこまでもずっと
TTITLE1=あなたに会いたい
TTITLE2=どこまでもずっと(カラオケ)
TTITLE3=あなたに会いたい(カラオケ)
EXTD=YEAR: 1994
EXTT0=
EXTT1=
EXTT2=
EXTT3=
PLAYORDER=
